<?xml version="1.0" encoding="utf-8"?>
<!-- Generator: Adobe Illustrator 16.2.0, SVG Export Plug-In . SVG Version: 6.00 Build 0)  -->
<!DOCTYPE svg PUBLIC "-//W3C//DTD SVG 1.1//EN" "http://www.w3.org/Graphics/SVG/1.1/DTD/svg11.dtd">
<svg version="1.1" id="Layer_1" xmlns="http://www.w3.org/2000/svg" xmlns:xlink="http://www.w3.org/1999/xlink" x="0px" y="0px"
	 width="90px" height="105px" viewBox="0 0 90 105" enable-background="new 0 0 90 105" xml:space="preserve">
<g>
	<polyline fill="#B4B5B5" points="13.946,103.957 13.946,1.002 76.014,1.002 76.014,103.957 	"/>
	<g>
		<g>
			
				<rect x="20.502" y="9.354" fill="#FFFFFF" stroke="#FFFFFF" stroke-width="0.6246" stroke-miterlimit="10" width="6.085" height="6.084"/>
			
				<rect x="31.446" y="9.354" fill="#FFFFFF" stroke="#FFFFFF" stroke-width="0.6246" stroke-miterlimit="10" width="6.082" height="6.084"/>
			
				<rect x="42.264" y="9.354" fill="#FFFFFF" stroke="#FFFFFF" stroke-width="0.6246" stroke-miterlimit="10" width="6.083" height="6.084"/>
			
				<rect x="53.081" y="9.354" fill="#FFFFFF" stroke="#FFFFFF" stroke-width="0.6246" stroke-miterlimit="10" width="6.085" height="6.084"/>
			
				<rect x="63.883" y="9.354" fill="#FFFFFF" stroke="#FFFFFF" stroke-width="0.6246" stroke-miterlimit="10" width="6.086" height="6.084"/>
		</g>
		<g>
			
				<rect x="20.502" y="21.638" fill="#FFFFFF" stroke="#FFFFFF" stroke-width="0.6246" stroke-miterlimit="10" width="6.085" height="6.084"/>
			
				<rect x="31.446" y="21.638" fill="#FFFFFF" stroke="#FFFFFF" stroke-width="0.6246" stroke-miterlimit="10" width="6.082" height="6.084"/>
			
				<rect x="42.264" y="21.638" fill="#FFFFFF" stroke="#FFFFFF" stroke-width="0.6246" stroke-miterlimit="10" width="6.083" height="6.084"/>
			
				<rect x="53.081" y="21.638" fill="#FFFFFF" stroke="#FFFFFF" stroke-width="0.6246" stroke-miterlimit="10" width="6.085" height="6.084"/>
			
				<rect x="63.883" y="21.638" fill="#FFFFFF" stroke="#FFFFFF" stroke-width="0.6246" stroke-miterlimit="10" width="6.086" height="6.084"/>
		</g>
		<g>
			
				<rect x="20.502" y="33.886" fill="#FFFFFF" stroke="#FFFFFF" stroke-width="0.6246" stroke-miterlimit="10" width="6.085" height="6.084"/>
			
				<rect x="31.446" y="33.886" fill="#FFFFFF" stroke="#FFFFFF" stroke-width="0.6246" stroke-miterlimit="10" width="6.082" height="6.084"/>
			
				<rect x="42.264" y="33.886" fill="#FFFFFF" stroke="#FFFFFF" stroke-width="0.6246" stroke-miterlimit="10" width="6.083" height="6.084"/>
			
				<rect x="53.081" y="33.886" fill="#FFFFFF" stroke="#FFFFFF" stroke-width="0.6246" stroke-miterlimit="10" width="6.085" height="6.084"/>
			
				<rect x="63.883" y="33.886" fill="#FFFFFF" stroke="#FFFFFF" stroke-width="0.6246" stroke-miterlimit="10" width="6.086" height="6.084"/>
		</g>
		<g>
			
				<rect x="20.502" y="46.169" fill="#FFFFFF" stroke="#FFFFFF" stroke-width="0.6246" stroke-miterlimit="10" width="6.085" height="6.085"/>
			
				<rect x="31.446" y="46.169" fill="#FFFFFF" stroke="#FFFFFF" stroke-width="0.6246" stroke-miterlimit="10" width="6.082" height="6.085"/>
			
				<rect x="42.264" y="46.169" fill="#FFFFFF" stroke="#FFFFFF" stroke-width="0.6246" stroke-miterlimit="10" width="6.083" height="6.085"/>
			
				<rect x="53.081" y="46.169" fill="#FFFFFF" stroke="#FFFFFF" stroke-width="0.6246" stroke-miterlimit="10" width="6.085" height="6.085"/>
			
				<rect x="63.883" y="46.169" fill="#FFFFFF" stroke="#FFFFFF" stroke-width="0.6246" stroke-miterlimit="10" width="6.086" height="6.085"/>
		</g>
		<g>
			
				<rect x="20.502" y="58.706" fill="#FFFFFF" stroke="#FFFFFF" stroke-width="0.6246" stroke-miterlimit="10" width="6.085" height="6.083"/>
			
				<rect x="31.446" y="58.706" fill="#FFFFFF" stroke="#FFFFFF" stroke-width="0.6246" stroke-miterlimit="10" width="6.082" height="6.083"/>
			
				<rect x="42.264" y="58.706" fill="#FFFFFF" stroke="#FFFFFF" stroke-width="0.6246" stroke-miterlimit="10" width="6.083" height="6.083"/>
			
				<rect x="53.081" y="58.706" fill="#FFFFFF" stroke="#FFFFFF" stroke-width="0.6246" stroke-miterlimit="10" width="6.085" height="6.083"/>
			
				<rect x="63.883" y="58.706" fill="#FFFFFF" stroke="#FFFFFF" stroke-width="0.6246" stroke-miterlimit="10" width="6.086" height="6.083"/>
		</g>
		<g>
			
				<rect x="20.502" y="70.988" fill="#FFFFFF" stroke="#FFFFFF" stroke-width="0.6246" stroke-miterlimit="10" width="6.085" height="6.085"/>
			
				<rect x="31.446" y="70.988" fill="#FFFFFF" stroke="#FFFFFF" stroke-width="0.6246" stroke-miterlimit="10" width="6.082" height="6.085"/>
			
				<rect x="42.264" y="70.988" fill="#FFFFFF" stroke="#FFFFFF" stroke-width="0.6246" stroke-miterlimit="10" width="6.083" height="6.085"/>
			
				<rect x="53.081" y="70.988" fill="#FFFFFF" stroke="#FFFFFF" stroke-width="0.6246" stroke-miterlimit="10" width="6.085" height="6.085"/>
			
				<rect x="63.883" y="70.988" fill="#FFFFFF" stroke="#FFFFFF" stroke-width="0.6246" stroke-miterlimit="10" width="6.086" height="6.085"/>
		</g>
		<g>
			<g>
				
					<rect x="36.904" y="87.292" fill="#FFFFFF" stroke="#9E9E9F" stroke-width="0.6246" stroke-miterlimit="10" width="17.252" height="16.803"/>
			</g>
			
				<line fill="#FFFFFF" stroke="#9E9E9F" stroke-width="0.6246" stroke-miterlimit="10" x1="45.552" y1="87.653" x2="45.552" y2="104.179"/>
		</g>
		
			<line fill="#FFFFFF" stroke="#B4B5B5" stroke-width="0.9185" stroke-miterlimit="10" x1="0.546" y1="104.132" x2="89.43" y2="104.132"/>
	</g>
</g>
</svg>
