<?xml version="1.0" encoding="utf-8"?>
<!-- Generator: Adobe Illustrator 16.2.0, SVG Export Plug-In . SVG Version: 6.00 Build 0)  -->
<!DOCTYPE svg PUBLIC "-//W3C//DTD SVG 1.1//EN" "http://www.w3.org/Graphics/SVG/1.1/DTD/svg11.dtd">
<svg version="1.1" id="Layer_1" xmlns="http://www.w3.org/2000/svg" xmlns:xlink="http://www.w3.org/1999/xlink" x="0px" y="0px"
	 width="100.536px" height="65px" viewBox="0 0 100.536 65" enable-background="new 0 0 100.536 65" xml:space="preserve">
<g>
	<g>
		<linearGradient id="SVGID_1_" gradientUnits="userSpaceOnUse" x1="32.752" y1="7.0869" x2="69.1058" y2="43.4408">
			<stop  offset="0" style="stop-color:#DEC074"/>
			<stop  offset="1" style="stop-color:#836300"/>
		</linearGradient>
		<path fill="url(#SVGID_1_)" d="M31.8,23.701l8.287-3.508l2.871,1.213V9.355h15.939v9.193l11.162,5.152v11.795h6.99
			c0.766-2.523,1.183-5.195,1.183-7.971c0-15.082-12.224-27.305-27.306-27.305c-15.078,0-27.303,12.223-27.303,27.305
			c0,2.775,0.418,5.447,1.184,7.971H31.8V23.701z"/>
		<linearGradient id="SVGID_2_" gradientUnits="userSpaceOnUse" x1="27.9736" y1="11.9043" x2="64.3198" y2="48.2505">
			<stop  offset="0" style="stop-color:#DEC074"/>
			<stop  offset="1" style="stop-color:#836300"/>
		</linearGradient>
		<polygon fill="url(#SVGID_2_)" points="48.378,35.496 48.378,23.701 42.958,21.406 42.958,35.496 		"/>
		<linearGradient id="SVGID_3_" gradientUnits="userSpaceOnUse" x1="34.522" y1="5.356" x2="70.8682" y2="41.7022">
			<stop  offset="0" style="stop-color:#DEC074"/>
			<stop  offset="1" style="stop-color:#836300"/>
		</linearGradient>
		<polygon fill="url(#SVGID_3_)" points="53.479,35.496 58.897,35.496 58.897,18.549 53.479,16.049 		"/>
	</g>
	<g>
		<g>
			<g>
				<path fill="#231916" d="M2.467,63.211c-1.407-1.232-1.779-2.84-1.779-4.232c0-0.977,0.302-2.67,1.681-3.936
					c1.033-0.945,2.398-1.52,4.536-1.52c0.889,0,1.421,0.055,2.082,0.145c0.544,0.07,1.005,0.201,1.435,0.24
					c0.16,0.018,0.215,0.088,0.215,0.176c0,0.117-0.043,0.285-0.07,0.787c-0.029,0.479-0.016,1.268-0.043,1.553
					c-0.016,0.215-0.045,0.332-0.175,0.332c-0.113,0-0.144-0.117-0.144-0.32c-0.013-0.441-0.199-0.945-0.557-1.318
					c-0.474-0.506-1.596-0.889-2.916-0.889c-1.248,0-2.066,0.316-2.699,0.889c-1.048,0.961-1.319,2.328-1.319,3.719
					c0,3.414,2.599,5.109,4.521,5.109c1.277,0,2.053-0.145,2.628-0.805c0.243-0.271,0.431-0.689,0.486-0.947
					c0.044-0.229,0.073-0.285,0.188-0.285c0.1,0,0.131,0.1,0.131,0.215c0,0.172-0.174,1.418-0.319,1.91
					c-0.069,0.242-0.128,0.313-0.371,0.416c-0.575,0.23-1.665,0.33-2.585,0.33C5.425,64.779,3.776,64.346,2.467,63.211z"/>
				<path fill="#231916" d="M13.812,57.885c0-2.18,0-2.58-0.029-3.039c-0.027-0.49-0.172-0.732-0.487-0.807
					c-0.157-0.043-0.343-0.055-0.515-0.055c-0.145,0-0.232-0.029-0.232-0.146c0-0.086,0.116-0.113,0.346-0.113
					c0.545,0,1.449,0.045,1.865,0.045c0.359,0,1.205-0.045,1.752-0.045c0.187,0,0.302,0.027,0.302,0.113
					c0,0.117-0.089,0.146-0.231,0.146s-0.256,0.012-0.431,0.039c-0.387,0.074-0.501,0.318-0.53,0.822
					c-0.028,0.459-0.028,0.859-0.028,3.039v2.527c0,1.393,0,2.527,0.058,3.146c0.044,0.387,0.143,0.645,0.574,0.703
					c0.2,0.025,0.516,0.059,0.732,0.059c0.157,0,0.229,0.041,0.229,0.117c0,0.1-0.113,0.143-0.272,0.143
					c-0.948,0-1.854-0.043-2.239-0.043c-0.33,0-1.234,0.043-1.809,0.043c-0.188,0-0.287-0.043-0.287-0.143
					c0-0.076,0.059-0.117,0.23-0.117c0.215,0,0.387-0.033,0.516-0.059c0.287-0.059,0.373-0.299,0.417-0.721
					c0.071-0.602,0.071-1.736,0.071-3.129V57.885z"/>
				<path fill="#231916" d="M21.995,54.527l-2.139,0.061c-0.832,0.023-1.178,0.1-1.393,0.414c-0.145,0.215-0.215,0.391-0.244,0.504
					c-0.029,0.115-0.07,0.168-0.158,0.168c-0.102,0-0.129-0.066-0.129-0.227c0-0.23,0.272-1.539,0.301-1.648
					c0.043-0.188,0.086-0.275,0.171-0.275c0.116,0,0.26,0.145,0.62,0.17c0.417,0.045,0.961,0.076,1.434,0.076h5.687
					c0.458,0,0.775-0.045,0.989-0.076c0.216-0.039,0.33-0.07,0.389-0.07c0.1,0,0.113,0.084,0.113,0.303
					c0,0.303-0.043,1.291-0.043,1.662c-0.013,0.148-0.043,0.23-0.129,0.23c-0.114,0-0.141-0.068-0.158-0.287l-0.014-0.154
					c-0.027-0.375-0.416-0.775-1.693-0.807l-1.81-0.043v5.885c0,1.322,0,2.457,0.071,3.072c0.045,0.404,0.131,0.719,0.561,0.777
					c0.2,0.025,0.518,0.059,0.732,0.059c0.158,0,0.231,0.041,0.231,0.117c0,0.1-0.117,0.143-0.274,0.143
					c-0.947,0-1.852-0.043-2.253-0.043c-0.331,0-1.235,0.043-1.808,0.043c-0.189,0-0.287-0.043-0.287-0.143
					c0-0.076,0.057-0.117,0.227-0.117c0.217,0,0.389-0.033,0.519-0.059c0.286-0.059,0.372-0.373,0.415-0.789
					c0.072-0.604,0.072-1.738,0.072-3.061V54.527z"/>
				<path fill="#231916" d="M32.318,60.861c0-0.775-0.144-1.094-0.331-1.508c-0.1-0.234-2.021-3.393-2.524-4.137
					c-0.36-0.529-0.718-0.889-0.991-1.047c-0.187-0.102-0.432-0.186-0.602-0.186c-0.117,0-0.217-0.029-0.217-0.133
					c0-0.082,0.1-0.127,0.275-0.127c0.258,0,1.333,0.045,1.805,0.045c0.303,0,0.892-0.045,1.537-0.045
					c0.143,0,0.217,0.045,0.217,0.127c0,0.092-0.102,0.104-0.316,0.162c-0.129,0.025-0.202,0.143-0.202,0.254
					c0,0.117,0.073,0.289,0.175,0.492c0.2,0.43,2.209,3.889,2.439,4.291c0.143-0.346,1.951-3.504,2.154-3.949
					c0.144-0.314,0.199-0.557,0.199-0.746c0-0.141-0.056-0.303-0.301-0.359c-0.131-0.027-0.26-0.053-0.26-0.145
					c0-0.1,0.073-0.127,0.246-0.127c0.473,0,0.932,0.045,1.35,0.045c0.314,0,1.263-0.045,1.535-0.045
					c0.157,0,0.258,0.027,0.258,0.113c0,0.105-0.114,0.146-0.271,0.146c-0.145,0-0.418,0.055-0.634,0.172
					c-0.3,0.143-0.459,0.314-0.772,0.703c-0.477,0.57-2.486,3.949-2.742,4.566c-0.219,0.514-0.219,0.961-0.219,1.436v1.174
					c0,0.232,0,0.834,0.045,1.438c0.029,0.416,0.156,0.73,0.59,0.789c0.201,0.025,0.518,0.059,0.717,0.059
					c0.158,0,0.229,0.041,0.229,0.117c0,0.1-0.114,0.143-0.302,0.143c-0.902,0-1.809-0.043-2.195-0.043
					c-0.359,0-1.263,0.043-1.797,0.043c-0.199,0-0.316-0.033-0.316-0.143c0-0.076,0.074-0.117,0.233-0.117
					c0.2,0,0.37-0.033,0.5-0.059c0.288-0.059,0.417-0.373,0.448-0.789c0.04-0.604,0.04-1.205,0.04-1.438V60.861z"/>
				<path fill="#231916" d="M52.722,58.291c0.043,0,0.085-0.031,0.085-0.1v-0.307c0-2.18,0-2.58-0.028-3.039
					c-0.027-0.49-0.144-0.719-0.616-0.822c-0.115-0.027-0.358-0.039-0.562-0.039c-0.156,0-0.242-0.029-0.242-0.133
					c0-0.1,0.098-0.127,0.301-0.127c0.775,0,1.68,0.045,2.066,0.045c0.346,0,1.252-0.045,1.809-0.045
					c0.201,0,0.303,0.027,0.303,0.127c0,0.104-0.088,0.133-0.258,0.133c-0.117,0-0.246,0.012-0.417,0.039
					c-0.388,0.074-0.503,0.318-0.53,0.822c-0.031,0.459-0.031,0.859-0.031,3.039v2.527c0,1.322,0,2.457,0.072,3.072
					c0.045,0.404,0.129,0.719,0.561,0.777c0.204,0.025,0.516,0.059,0.732,0.059c0.158,0,0.229,0.041,0.229,0.117
					c0,0.1-0.113,0.143-0.285,0.143c-0.932,0-1.838-0.043-2.24-0.043c-0.33,0-1.234,0.043-1.795,0.043
					c-0.201,0-0.301-0.043-0.301-0.143c0-0.076,0.059-0.117,0.23-0.117c0.215,0,0.387-0.033,0.515-0.059
					c0.286-0.059,0.358-0.373,0.416-0.789c0.072-0.604,0.072-1.738,0.072-3.061v-1.26c0-0.059-0.042-0.09-0.085-0.09h-5.483
					c-0.042,0-0.087,0.016-0.087,0.09v1.26c0,1.322,0,2.457,0.07,3.072c0.045,0.404,0.131,0.719,0.561,0.777
					c0.201,0.025,0.518,0.059,0.731,0.059c0.159,0,0.233,0.041,0.233,0.117c0,0.1-0.117,0.143-0.289,0.143
					c-0.935,0-1.837-0.043-2.24-0.043c-0.331,0-1.234,0.043-1.809,0.043c-0.187,0-0.285-0.043-0.285-0.143
					c0-0.076,0.056-0.117,0.229-0.117c0.214,0,0.389-0.033,0.518-0.059c0.285-0.059,0.357-0.373,0.414-0.789
					c0.072-0.604,0.072-1.738,0.072-3.061v-2.527c0-2.18,0-2.58-0.029-3.039c-0.027-0.49-0.141-0.719-0.617-0.822
					c-0.113-0.027-0.357-0.039-0.561-0.039c-0.156,0-0.244-0.029-0.244-0.133c0-0.1,0.103-0.127,0.303-0.127
					c0.775,0,1.679,0.045,2.068,0.045c0.345,0,1.247-0.045,1.809-0.045c0.202,0,0.3,0.027,0.3,0.127
					c0,0.104-0.085,0.133-0.259,0.133c-0.112,0-0.242,0.012-0.416,0.039c-0.387,0.074-0.5,0.318-0.531,0.822
					c-0.027,0.459-0.027,0.859-0.027,3.039v0.307c0,0.068,0.045,0.1,0.087,0.1H52.722z"/>
				<path fill="#231916" d="M56.888,59.152c0-2.455,1.62-5.629,5.928-5.629c3.574,0,5.801,2.084,5.801,5.369
					c0,3.287-2.297,5.887-5.943,5.887C58.551,64.779,56.888,61.693,56.888,59.152z M66.606,59.426c0-3.219-1.852-5.211-4.207-5.211
					c-1.649,0-3.531,0.918-3.531,4.49c0,2.988,1.652,5.355,4.405,5.355C64.28,64.061,66.606,63.572,66.606,59.426z"/>
				<path fill="#231916" d="M71.646,53.781c0.044-0.242,0.127-0.373,0.242-0.373c0.116,0,0.201,0.076,0.392,0.443l3.917,8.1
					l3.905-8.199c0.115-0.229,0.188-0.344,0.316-0.344s0.213,0.146,0.26,0.443l1.304,8.873c0.13,0.906,0.272,1.322,0.704,1.449
					c0.415,0.131,0.705,0.146,0.888,0.146c0.13,0,0.23,0.012,0.23,0.1c0,0.117-0.171,0.16-0.37,0.16
					c-0.361,0-2.344-0.043-2.915-0.088c-0.331-0.029-0.417-0.072-0.417-0.16c0-0.07,0.059-0.113,0.16-0.158
					c0.082-0.027,0.127-0.211,0.068-0.615l-0.859-6.32h-0.061l-3.129,6.52c-0.328,0.68-0.4,0.807-0.527,0.807
					c-0.131,0-0.273-0.289-0.503-0.719c-0.344-0.662-1.479-2.855-1.649-3.262c-0.132-0.297-0.994-2.109-1.496-3.184h-0.056
					l-0.745,5.713c-0.033,0.258-0.047,0.445-0.047,0.676c0,0.271,0.188,0.398,0.432,0.459c0.258,0.057,0.458,0.072,0.602,0.072
					c0.117,0,0.215,0.025,0.215,0.1c0,0.127-0.128,0.16-0.344,0.16c-0.602,0-1.248-0.043-1.508-0.043
					c-0.273,0-0.96,0.043-1.42,0.043c-0.143,0-0.261-0.033-0.261-0.16c0-0.074,0.089-0.1,0.232-0.1c0.116,0,0.216,0,0.43-0.045
					c0.402-0.088,0.519-0.645,0.589-1.135L71.646,53.781z"/>
				<path fill="#231916" d="M86.452,57.885c0-2.18,0-2.58-0.03-3.039c-0.028-0.49-0.144-0.719-0.618-0.822
					c-0.113-0.027-0.357-0.039-0.557-0.039c-0.158,0-0.247-0.029-0.247-0.133c0-0.1,0.103-0.127,0.315-0.127
					c0.392,0,0.805,0.014,1.163,0.014c0.375,0.014,0.704,0.031,0.907,0.031c0.457,0,3.314,0,3.588-0.018
					c0.271-0.027,0.502-0.059,0.615-0.084c0.074-0.014,0.158-0.057,0.23-0.057c0.07,0,0.085,0.057,0.085,0.127
					c0,0.1-0.071,0.275-0.113,0.934c-0.014,0.145-0.044,0.775-0.069,0.949c-0.017,0.068-0.045,0.158-0.145,0.158
					c-0.102,0-0.13-0.074-0.13-0.205c0-0.1-0.016-0.342-0.089-0.516c-0.098-0.256-0.242-0.43-0.959-0.514
					c-0.244-0.031-1.752-0.059-2.039-0.059c-0.075,0-0.102,0.041-0.102,0.143v3.631c0,0.104,0.014,0.156,0.102,0.156
					c0.314,0,1.967,0,2.297-0.027c0.344-0.025,0.56-0.072,0.688-0.215c0.103-0.115,0.16-0.184,0.232-0.184
					c0.053,0,0.1,0.023,0.1,0.111c0,0.09-0.059,0.314-0.116,1.051c-0.015,0.287-0.056,0.859-0.056,0.961
					c0,0.115,0,0.273-0.129,0.273c-0.104,0-0.131-0.061-0.131-0.133c-0.013-0.141-0.013-0.332-0.059-0.514
					c-0.07-0.289-0.27-0.504-0.803-0.563c-0.273-0.025-1.693-0.043-2.038-0.043c-0.073,0-0.087,0.061-0.087,0.148v1.129
					c0,0.492-0.01,1.811,0,2.227c0.026,0.992,0.258,1.207,1.725,1.207c0.372,0,0.976,0,1.347-0.176
					c0.375-0.17,0.546-0.471,0.649-1.059c0.029-0.16,0.057-0.219,0.158-0.219c0.111,0,0.111,0.117,0.111,0.262
					c0,0.332-0.111,1.309-0.187,1.594c-0.099,0.369-0.229,0.369-0.775,0.369c-1.075,0-1.864-0.025-2.481-0.037
					c-0.617-0.033-1.063-0.043-1.494-0.043c-0.158,0-0.473,0-0.818,0.01c-0.33,0-0.703,0.033-0.99,0.033
					c-0.188,0-0.285-0.043-0.285-0.143c0-0.076,0.056-0.117,0.229-0.117c0.214,0,0.389-0.033,0.516-0.059
					c0.288-0.059,0.359-0.373,0.418-0.789c0.072-0.604,0.072-1.738,0.072-3.061V57.885z"/>
				<path fill="#231916" d="M94.808,64.404c-0.229-0.1-0.27-0.172-0.27-0.486c0-0.789,0.055-1.65,0.068-1.883
					c0.015-0.213,0.058-0.373,0.171-0.373c0.129,0,0.147,0.131,0.147,0.246c0,0.184,0.055,0.484,0.126,0.73
					c0.317,1.064,1.165,1.449,2.054,1.449c1.292,0,1.924-0.877,1.924-1.637c0-0.701-0.215-1.363-1.405-2.295l-0.663-0.52
					c-1.577-1.23-2.123-2.236-2.123-3.4c0-1.578,1.321-2.713,3.314-2.713c0.935,0,1.537,0.145,1.908,0.246
					c0.132,0.029,0.201,0.068,0.201,0.174c0,0.184-0.058,0.602-0.058,1.719c0,0.314-0.042,0.432-0.153,0.432
					c-0.102,0-0.143-0.09-0.143-0.26c0-0.129-0.076-0.572-0.377-0.949c-0.214-0.273-0.631-0.699-1.563-0.699
					c-1.063,0-1.71,0.617-1.71,1.477c0,0.656,0.331,1.164,1.522,2.068l0.401,0.299c1.739,1.307,2.355,2.297,2.355,3.664
					c0,0.828-0.316,1.822-1.35,2.494c-0.717,0.461-1.521,0.592-2.283,0.592C96.071,64.779,95.425,64.68,94.808,64.404z"/>
			</g>
			<g>
				<path fill="#231916" d="M20.615,48.367c0,0.541,0,0.834,0.089,0.908c0.07,0.063,0.182,0.096,0.51,0.096
					c0.224,0,0.389-0.008,0.493-0.123c0.052-0.051,0.103-0.172,0.11-0.25c0.002-0.039,0.013-0.064,0.047-0.064
					c0.029,0,0.033,0.021,0.033,0.072c0,0.045-0.029,0.365-0.062,0.482c-0.026,0.098-0.048,0.119-0.267,0.119
					c-0.305,0-0.524-0.01-0.714-0.018c-0.19-0.004-0.341-0.01-0.515-0.01c-0.045,0-0.14,0-0.24,0.006
					c-0.098,0-0.205,0.004-0.292,0.004c-0.054,0-0.083-0.01-0.083-0.041c0-0.02,0.016-0.033,0.068-0.033
					c0.063,0,0.113-0.006,0.15-0.014c0.085-0.021,0.104-0.115,0.122-0.234c0.021-0.18,0.021-0.51,0.021-0.9v-0.738
					c0-0.643,0-0.764-0.009-0.896c-0.01-0.143-0.041-0.211-0.182-0.24c-0.034-0.012-0.082-0.014-0.138-0.014
					c-0.046,0-0.071-0.012-0.071-0.033c0-0.033,0.028-0.043,0.092-0.043c0.196,0,0.464,0.01,0.577,0.01
					c0.101,0,0.409-0.01,0.573-0.01c0.059,0,0.092,0.01,0.092,0.043c0,0.021-0.029,0.033-0.079,0.033
					c-0.045,0-0.113,0.002-0.163,0.014c-0.115,0.02-0.148,0.094-0.156,0.24c-0.009,0.133-0.009,0.254-0.009,0.896V48.367z"/>
				<path fill="#231916" d="M22.594,47.629c0-0.643,0-0.764-0.007-0.896c-0.01-0.143-0.042-0.211-0.184-0.24
					c-0.033-0.012-0.104-0.014-0.164-0.014c-0.045,0-0.07-0.012-0.07-0.033c0-0.033,0.029-0.043,0.092-0.043
					c0.116,0,0.237,0.004,0.342,0.004c0.109,0.006,0.207,0.006,0.266,0.006c0.135,0,0.976,0,1.057,0
					c0.079-0.01,0.146-0.016,0.18-0.027c0.021-0.002,0.047-0.012,0.068-0.012c0.02,0,0.025,0.012,0.025,0.033
					c0,0.031-0.022,0.08-0.033,0.275c-0.006,0.041-0.014,0.227-0.022,0.279c-0.004,0.021-0.014,0.045-0.042,0.045
					c-0.029,0-0.038-0.02-0.038-0.059c0-0.031-0.005-0.102-0.026-0.152c-0.028-0.076-0.07-0.127-0.281-0.152
					c-0.074-0.006-0.515-0.018-0.601-0.018c-0.021,0-0.027,0.016-0.027,0.043v1.068c0,0.029,0.003,0.047,0.027,0.047
					c0.093,0,0.579,0,0.677-0.012c0.1-0.006,0.164-0.02,0.203-0.061c0.028-0.035,0.047-0.055,0.066-0.055
					c0.017,0,0.028,0.01,0.028,0.033c0,0.027-0.015,0.094-0.032,0.307c-0.006,0.084-0.016,0.254-0.016,0.285
					c0,0.033,0,0.076-0.039,0.076c-0.031,0-0.038-0.016-0.038-0.035c-0.005-0.041-0.005-0.1-0.019-0.154
					c-0.02-0.084-0.079-0.145-0.235-0.162c-0.08-0.01-0.499-0.016-0.599-0.016c-0.021,0-0.024,0.018-0.024,0.045v0.332
					c0,0.145-0.005,0.535,0,0.656c0.006,0.291,0.075,0.355,0.505,0.355c0.109,0,0.287,0,0.397-0.055
					c0.109-0.049,0.161-0.137,0.188-0.313c0.01-0.043,0.018-0.061,0.047-0.061c0.034,0,0.034,0.033,0.034,0.074
					c0,0.098-0.034,0.385-0.055,0.469c-0.03,0.113-0.068,0.113-0.229,0.113c-0.314,0-0.547-0.01-0.729-0.018
					c-0.182-0.004-0.312-0.01-0.438-0.01c-0.049,0-0.141,0-0.243,0.006c-0.095,0-0.205,0.004-0.29,0.004
					c-0.055,0-0.084-0.01-0.084-0.041c0-0.02,0.018-0.033,0.068-0.033c0.063,0,0.113-0.006,0.152-0.014
					c0.083-0.021,0.104-0.115,0.121-0.234c0.021-0.18,0.021-0.51,0.021-0.9V47.629z"/>
				<path fill="#231916" d="M25.385,48.49c-0.022,0-0.03,0.008-0.04,0.033l-0.225,0.604c-0.045,0.104-0.064,0.209-0.064,0.258
					c0,0.076,0.037,0.131,0.168,0.131h0.063c0.051,0,0.063,0.008,0.063,0.033c0,0.037-0.023,0.041-0.069,0.041
					c-0.134,0-0.317-0.01-0.448-0.01c-0.046,0-0.278,0.01-0.498,0.01c-0.055,0-0.08-0.004-0.08-0.041
					c0-0.025,0.018-0.033,0.052-0.033c0.036,0,0.096-0.002,0.132-0.006c0.191-0.029,0.273-0.172,0.356-0.383l1.06-2.648
					c0.051-0.121,0.075-0.17,0.117-0.17c0.037,0,0.063,0.039,0.107,0.137c0.1,0.23,0.776,1.955,1.045,2.594
					c0.16,0.379,0.282,0.439,0.369,0.463c0.064,0.012,0.128,0.014,0.178,0.014c0.035,0,0.056,0.002,0.056,0.033
					c0,0.037-0.038,0.041-0.192,0.041c-0.152,0-0.462,0-0.799-0.004c-0.076-0.006-0.125-0.006-0.125-0.037
					c0-0.025,0.015-0.033,0.059-0.035c0.029-0.01,0.057-0.049,0.036-0.1l-0.337-0.895c-0.008-0.021-0.021-0.029-0.041-0.029H25.385z
					 M26.246,48.281c0.021,0,0.022-0.016,0.021-0.027l-0.381-1.043c-0.005-0.014-0.01-0.037-0.021-0.037
					c-0.013,0-0.021,0.023-0.024,0.037l-0.389,1.039c-0.006,0.016,0,0.031,0.016,0.031H26.246z"/>
				<path fill="#231916" d="M28.123,47.629c0-0.643,0-0.764-0.011-0.896c-0.008-0.143-0.041-0.211-0.18-0.24
					c-0.035-0.012-0.107-0.014-0.164-0.014c-0.047,0-0.072-0.012-0.072-0.033c0-0.033,0.029-0.043,0.092-0.043
					c0.224,0,0.49,0.01,0.607,0.01c0.131,0,0.398-0.01,0.649-0.01c0.525,0,1.233,0,1.693,0.48c0.21,0.221,0.409,0.572,0.409,1.07
					c0,0.531-0.225,0.938-0.46,1.176c-0.194,0.203-0.634,0.5-1.414,0.5c-0.151,0-0.326-0.016-0.485-0.021
					c-0.16-0.018-0.309-0.027-0.414-0.027c-0.046,0-0.139,0-0.24,0.006c-0.098,0-0.205,0.004-0.291,0.004
					c-0.055,0-0.084-0.01-0.084-0.041c0-0.02,0.016-0.033,0.066-0.033c0.065,0,0.115-0.006,0.154-0.014
					c0.084-0.021,0.105-0.115,0.121-0.234c0.022-0.18,0.022-0.51,0.022-0.9V47.629z M28.65,48.09c0,0.445,0.003,0.771,0.007,0.852
					c0.005,0.107,0.014,0.275,0.045,0.32c0.056,0.078,0.222,0.172,0.555,0.172c0.43,0,0.717-0.088,0.97-0.307
					c0.269-0.234,0.354-0.615,0.354-1.049c0-0.537-0.224-0.881-0.404-1.055c-0.387-0.373-0.87-0.422-1.198-0.422
					c-0.085,0-0.241,0.012-0.276,0.029c-0.036,0.018-0.049,0.037-0.049,0.084c-0.003,0.143-0.003,0.51-0.003,0.844V48.09z"/>
				<path fill="#231916" d="M31.854,47.629c0-0.643,0-0.764-0.01-0.896c-0.006-0.143-0.049-0.215-0.143-0.236
					c-0.046-0.016-0.1-0.018-0.151-0.018c-0.044,0-0.067-0.012-0.067-0.041c0-0.025,0.031-0.035,0.1-0.035
					c0.162,0,0.428,0.01,0.551,0.01c0.105,0,0.354-0.01,0.513-0.01c0.054,0,0.089,0.01,0.089,0.035c0,0.029-0.025,0.041-0.066,0.041
					s-0.077,0.002-0.128,0.014c-0.115,0.02-0.146,0.094-0.156,0.24c-0.008,0.133-0.008,0.254-0.008,0.896v0.738
					c0,0.41,0,0.744,0.018,0.926c0.013,0.113,0.041,0.188,0.169,0.209c0.059,0.008,0.149,0.014,0.215,0.014
					c0.047,0,0.066,0.014,0.066,0.033c0,0.031-0.032,0.041-0.08,0.041c-0.277,0-0.543-0.01-0.656-0.01
					c-0.098,0-0.363,0.01-0.532,0.01c-0.056,0-0.085-0.01-0.085-0.041c0-0.02,0.016-0.033,0.068-0.033
					c0.063,0,0.113-0.006,0.148-0.014c0.088-0.021,0.111-0.092,0.125-0.215c0.021-0.176,0.021-0.51,0.021-0.92V47.629z"/>
				<path fill="#231916" d="M33.784,49.021c0.009,0.324,0.063,0.436,0.146,0.463c0.072,0.029,0.154,0.031,0.221,0.031
					c0.045,0,0.071,0.008,0.071,0.033c0,0.037-0.038,0.041-0.098,0.041c-0.273,0-0.441-0.01-0.522-0.01
					c-0.039,0-0.235,0.01-0.455,0.01c-0.055,0-0.094-0.002-0.094-0.041c0-0.025,0.025-0.033,0.066-0.033
					c0.057,0,0.133-0.002,0.191-0.021c0.109-0.033,0.127-0.156,0.131-0.521l0.039-2.498c0-0.088,0.012-0.146,0.055-0.146
					c0.045,0,0.084,0.057,0.155,0.133c0.051,0.057,0.689,0.746,1.307,1.354c0.288,0.289,0.856,0.896,0.929,0.963h0.021l-0.043-1.895
					c-0.004-0.258-0.042-0.338-0.143-0.379c-0.063-0.025-0.166-0.025-0.225-0.025c-0.048,0-0.067-0.016-0.067-0.033
					c0-0.039,0.046-0.043,0.11-0.043c0.221,0,0.422,0.01,0.512,0.01c0.045,0,0.205-0.01,0.414-0.01c0.053,0,0.096,0.004,0.096,0.043
					c0,0.018-0.025,0.033-0.076,0.033c-0.041,0-0.076,0-0.127,0.014c-0.119,0.033-0.15,0.121-0.156,0.357l-0.047,2.664
					c0,0.094-0.018,0.131-0.054,0.131c-0.048,0-0.098-0.047-0.144-0.096c-0.27-0.252-0.807-0.805-1.244-1.24
					c-0.461-0.455-0.928-0.98-1.004-1.063h-0.013L33.784,49.021z"/>
				<path fill="#231916" d="M40.058,49.309c0,0.113-0.006,0.125-0.055,0.152c-0.276,0.146-0.689,0.189-1.02,0.189
					c-1.034,0-1.947-0.49-1.947-1.654c0-0.674,0.348-1.146,0.734-1.379c0.402-0.242,0.778-0.273,1.135-0.273
					c0.289,0,0.66,0.053,0.748,0.068c0.086,0.016,0.233,0.041,0.33,0.045c0.051,0.004,0.06,0.021,0.06,0.049
					c0,0.047-0.028,0.166-0.028,0.693c0,0.068-0.012,0.09-0.047,0.09c-0.029,0-0.038-0.021-0.043-0.053
					c-0.012-0.102-0.035-0.234-0.143-0.354c-0.127-0.137-0.466-0.33-0.941-0.33c-0.234,0-0.539,0.021-0.835,0.264
					c-0.235,0.199-0.389,0.512-0.389,1.031c0,0.91,0.579,1.59,1.469,1.59c0.108,0,0.257,0,0.359-0.051
					c0.062-0.025,0.078-0.084,0.078-0.156v-0.395c0-0.209,0-0.371-0.003-0.496c-0.004-0.145-0.043-0.213-0.182-0.24
					c-0.033-0.01-0.105-0.016-0.164-0.016c-0.039,0-0.063-0.006-0.063-0.033c0-0.031,0.027-0.043,0.086-0.043
					c0.221,0,0.484,0.016,0.613,0.016c0.131,0,0.355-0.016,0.494-0.016c0.054,0,0.083,0.012,0.083,0.043
					c0,0.027-0.023,0.033-0.054,0.033c-0.034,0-0.064,0.006-0.115,0.016c-0.111,0.02-0.156,0.092-0.16,0.24
					c-0.002,0.125-0.002,0.293-0.002,0.506V49.309z"/>
				<path fill="#231916" d="M42.407,47.629c0-0.643,0-0.764-0.009-0.896c-0.007-0.143-0.042-0.211-0.182-0.24
					c-0.032-0.012-0.104-0.014-0.163-0.014c-0.048,0-0.072-0.012-0.072-0.033c0-0.033,0.03-0.043,0.094-0.043
					c0.111,0,0.236,0.004,0.342,0.004c0.109,0.006,0.205,0.006,0.264,0.006c0.136,0,0.975,0,1.055,0
					c0.08-0.01,0.148-0.016,0.182-0.027c0.023-0.002,0.048-0.012,0.068-0.012s0.025,0.012,0.025,0.033
					c0,0.031-0.021,0.08-0.035,0.275c-0.004,0.041-0.011,0.227-0.02,0.279c-0.004,0.021-0.012,0.045-0.042,0.045
					s-0.038-0.02-0.038-0.059c0-0.031-0.006-0.102-0.025-0.152c-0.029-0.076-0.072-0.127-0.285-0.152
					c-0.068-0.006-0.514-0.018-0.597-0.018c-0.021,0-0.03,0.016-0.03,0.043v1.068c0,0.029,0.006,0.047,0.03,0.047
					c0.093,0,0.579,0,0.675-0.012c0.102-0.006,0.165-0.02,0.203-0.061c0.029-0.035,0.045-0.055,0.067-0.055
					c0.015,0,0.03,0.01,0.03,0.033c0,0.027-0.018,0.094-0.036,0.307c-0.004,0.084-0.017,0.254-0.017,0.285
					c0,0.033,0,0.076-0.036,0.076c-0.03,0-0.04-0.016-0.04-0.035c-0.003-0.041-0.003-0.1-0.016-0.154
					c-0.021-0.084-0.08-0.145-0.236-0.162c-0.08-0.01-0.498-0.016-0.6-0.016c-0.02,0-0.025,0.018-0.025,0.045v0.332
					c0,0.145-0.003,0.535,0,0.656c0.01,0.291,0.076,0.355,0.508,0.355c0.107,0,0.286,0,0.394-0.055
					c0.112-0.049,0.162-0.137,0.192-0.313c0.006-0.043,0.016-0.061,0.045-0.061c0.033,0,0.033,0.033,0.033,0.074
					c0,0.098-0.033,0.385-0.053,0.469c-0.03,0.113-0.068,0.113-0.23,0.113c-0.314,0-0.547-0.01-0.729-0.018
					c-0.182-0.004-0.311-0.01-0.438-0.01c-0.047,0-0.139,0-0.241,0.006c-0.096,0-0.206,0.004-0.292,0.004
					c-0.053,0-0.084-0.01-0.084-0.041c0-0.02,0.018-0.033,0.068-0.033c0.063,0,0.113-0.006,0.151-0.014
					c0.085-0.021,0.104-0.115,0.123-0.234c0.021-0.18,0.021-0.51,0.021-0.9V47.629z"/>
				<path fill="#231916" d="M44.796,49.539c-0.067-0.025-0.08-0.051-0.08-0.143c0-0.23,0.017-0.484,0.02-0.551
					c0.006-0.063,0.018-0.111,0.053-0.111c0.037,0,0.041,0.041,0.041,0.074c0,0.053,0.017,0.143,0.037,0.215
					c0.094,0.313,0.342,0.428,0.605,0.428c0.377,0,0.563-0.26,0.563-0.482c0-0.209-0.062-0.398-0.411-0.674l-0.196-0.154
					c-0.462-0.365-0.622-0.658-0.622-1c0-0.465,0.387-0.797,0.973-0.797c0.273,0,0.451,0.041,0.563,0.068
					c0.037,0.012,0.059,0.025,0.059,0.051c0,0.059-0.018,0.18-0.018,0.512c0,0.092-0.014,0.125-0.045,0.125
					s-0.043-0.025-0.043-0.076c0-0.037-0.021-0.168-0.109-0.281c-0.063-0.078-0.186-0.203-0.459-0.203
					c-0.313,0-0.504,0.18-0.504,0.436c0,0.193,0.098,0.34,0.446,0.605l0.119,0.09c0.511,0.381,0.692,0.672,0.692,1.074
					c0,0.244-0.094,0.535-0.397,0.734c-0.21,0.135-0.446,0.172-0.669,0.172C45.167,49.65,44.978,49.619,44.796,49.539z"/>
				<path fill="#231916" d="M47.999,46.641l-0.629,0.018c-0.245,0.006-0.345,0.025-0.409,0.121
					c-0.042,0.061-0.063,0.111-0.071,0.146c-0.01,0.035-0.021,0.051-0.048,0.051c-0.028,0-0.037-0.023-0.037-0.068
					c0-0.068,0.081-0.451,0.089-0.484c0.013-0.051,0.025-0.08,0.051-0.08c0.032,0,0.075,0.041,0.181,0.053
					c0.122,0.01,0.284,0.016,0.423,0.016h1.67c0.135,0,0.227-0.01,0.291-0.016c0.063-0.014,0.098-0.021,0.115-0.021
					c0.027,0,0.031,0.023,0.031,0.086c0,0.09-0.012,0.379-0.012,0.49c-0.004,0.041-0.014,0.068-0.037,0.068
					c-0.035,0-0.043-0.02-0.047-0.086l-0.006-0.049c-0.006-0.105-0.121-0.223-0.498-0.234l-0.529-0.01v1.727
					c0,0.391,0,0.721,0.021,0.902c0.012,0.117,0.038,0.211,0.165,0.232c0.06,0.008,0.151,0.014,0.215,0.014
					c0.047,0,0.066,0.014,0.066,0.033c0,0.031-0.031,0.041-0.078,0.041c-0.279,0-0.546-0.01-0.664-0.01
					c-0.096,0-0.363,0.01-0.531,0.01c-0.053,0-0.084-0.01-0.084-0.041c0-0.02,0.018-0.033,0.066-0.033
					c0.064,0,0.115-0.006,0.152-0.014c0.085-0.021,0.11-0.115,0.123-0.234c0.021-0.18,0.021-0.51,0.021-0.9V46.641z"/>
				<path fill="#231916" d="M50.218,48.49c-0.021,0-0.029,0.008-0.037,0.033l-0.229,0.604c-0.041,0.104-0.063,0.209-0.063,0.258
					c0,0.076,0.038,0.131,0.17,0.131h0.063c0.051,0,0.063,0.008,0.063,0.033c0,0.037-0.023,0.041-0.072,0.041
					c-0.135,0-0.316-0.01-0.445-0.01c-0.047,0-0.279,0.01-0.5,0.01c-0.053,0-0.078-0.004-0.078-0.041
					c0-0.025,0.016-0.033,0.05-0.033c0.038,0,0.097-0.002,0.133-0.006c0.19-0.029,0.272-0.172,0.356-0.383l1.06-2.648
					c0.048-0.121,0.073-0.17,0.117-0.17c0.038,0,0.062,0.039,0.106,0.137c0.103,0.23,0.775,1.955,1.045,2.594
					c0.161,0.379,0.283,0.439,0.371,0.463c0.064,0.012,0.127,0.014,0.178,0.014c0.033,0,0.055,0.002,0.055,0.033
					c0,0.037-0.037,0.041-0.193,0.041c-0.152,0-0.461,0-0.798-0.004c-0.075-0.006-0.127-0.006-0.127-0.037
					c0-0.025,0.019-0.033,0.06-0.035c0.029-0.01,0.06-0.049,0.037-0.1L51.2,48.52c-0.008-0.021-0.021-0.029-0.04-0.029H50.218z
					 M51.079,48.281c0.021,0,0.025-0.016,0.021-0.027l-0.381-1.043c-0.004-0.014-0.006-0.037-0.021-0.037
					c-0.011,0-0.02,0.023-0.022,0.037l-0.39,1.039c-0.004,0.016,0,0.031,0.019,0.031H51.079z"/>
				<path fill="#231916" d="M53.181,46.641l-0.628,0.018c-0.246,0.006-0.348,0.025-0.411,0.121c-0.039,0.061-0.063,0.111-0.07,0.146
					s-0.021,0.051-0.047,0.051c-0.029,0-0.037-0.023-0.037-0.068c0-0.068,0.08-0.451,0.086-0.484c0.016-0.051,0.029-0.08,0.053-0.08
					c0.034,0,0.074,0.041,0.181,0.053c0.122,0.01,0.283,0.016,0.421,0.016h1.672c0.137,0,0.229-0.01,0.291-0.016
					c0.064-0.014,0.098-0.021,0.113-0.021c0.031,0,0.035,0.023,0.035,0.086c0,0.09-0.014,0.379-0.014,0.49
					c-0.004,0.041-0.014,0.068-0.037,0.068c-0.033,0-0.043-0.02-0.046-0.086l-0.006-0.049c-0.008-0.105-0.122-0.223-0.498-0.234
					l-0.53-0.01v1.727c0,0.391,0,0.721,0.021,0.902c0.01,0.117,0.037,0.211,0.164,0.232c0.06,0.008,0.152,0.014,0.215,0.014
					c0.047,0,0.068,0.014,0.068,0.033c0,0.031-0.035,0.041-0.082,0.041c-0.279,0-0.543-0.01-0.66-0.01
					c-0.098,0-0.364,0.01-0.531,0.01c-0.057,0-0.085-0.01-0.085-0.041c0-0.02,0.017-0.033,0.067-0.033
					c0.063,0,0.113-0.006,0.151-0.014c0.085-0.021,0.109-0.115,0.122-0.234c0.021-0.18,0.021-0.51,0.021-0.9V46.641z"/>
				<path fill="#231916" d="M55.569,47.629c0-0.643,0-0.764-0.008-0.896c-0.012-0.143-0.043-0.211-0.184-0.24
					c-0.035-0.012-0.104-0.014-0.163-0.014c-0.048,0-0.075-0.012-0.075-0.033c0-0.033,0.032-0.043,0.096-0.043
					c0.113,0,0.236,0.004,0.34,0.004c0.111,0.006,0.209,0.006,0.265,0.006c0.138,0,0.976,0,1.056,0
					c0.082-0.01,0.148-0.016,0.183-0.027c0.022-0.002,0.046-0.012,0.068-0.012c0.024,0,0.026,0.012,0.026,0.033
					c0,0.031-0.023,0.08-0.036,0.275c-0.004,0.041-0.013,0.227-0.019,0.279c-0.006,0.021-0.014,0.045-0.046,0.045
					c-0.028,0-0.036-0.02-0.036-0.059c0-0.031-0.003-0.102-0.027-0.152c-0.028-0.076-0.07-0.127-0.279-0.152
					c-0.07-0.006-0.516-0.018-0.6-0.018c-0.023,0-0.03,0.016-0.03,0.043v1.068c0,0.029,0.007,0.047,0.03,0.047
					c0.09,0,0.58,0,0.674-0.012c0.104-0.006,0.166-0.02,0.203-0.061c0.029-0.035,0.045-0.055,0.065-0.055
					c0.019,0,0.032,0.01,0.032,0.033c0,0.027-0.021,0.094-0.034,0.307c-0.004,0.084-0.019,0.254-0.019,0.285
					c0,0.033,0,0.076-0.037,0.076c-0.027,0-0.037-0.016-0.037-0.035c-0.002-0.041-0.002-0.1-0.018-0.154
					c-0.021-0.084-0.082-0.145-0.236-0.162c-0.08-0.01-0.494-0.016-0.6-0.016c-0.018,0-0.024,0.018-0.024,0.045v0.332
					c0,0.145-0.003,0.535,0,0.656c0.007,0.291,0.077,0.355,0.507,0.355c0.109,0,0.287,0,0.396-0.055
					c0.11-0.049,0.159-0.137,0.188-0.313c0.011-0.043,0.018-0.061,0.049-0.061c0.033,0,0.033,0.033,0.033,0.074
					c0,0.098-0.033,0.385-0.057,0.469c-0.027,0.113-0.066,0.113-0.227,0.113c-0.315,0-0.549-0.01-0.729-0.018
					c-0.184-0.004-0.313-0.01-0.44-0.01c-0.045,0-0.14,0-0.239,0.006c-0.1,0-0.207,0.004-0.289,0.004
					c-0.057,0-0.087-0.01-0.087-0.041c0-0.02,0.017-0.033,0.068-0.033c0.063,0,0.114-0.006,0.153-0.014
					c0.082-0.021,0.104-0.115,0.119-0.234c0.023-0.18,0.023-0.51,0.023-0.9V47.629z"/>
				<path fill="#231916" d="M59.474,49.191c-0.414-0.361-0.521-0.836-0.521-1.244c0-0.287,0.087-0.783,0.492-1.156
					c0.302-0.279,0.704-0.447,1.332-0.447c0.262,0,0.42,0.018,0.611,0.041c0.16,0.021,0.297,0.061,0.423,0.072
					c0.048,0.004,0.064,0.023,0.064,0.049c0,0.037-0.013,0.088-0.022,0.232c-0.008,0.139-0.006,0.375-0.011,0.459
					c-0.006,0.063-0.014,0.094-0.056,0.094c-0.031,0-0.039-0.031-0.039-0.092c-0.004-0.131-0.059-0.275-0.164-0.387
					c-0.141-0.148-0.467-0.262-0.855-0.262c-0.368,0-0.609,0.092-0.793,0.262c-0.308,0.281-0.389,0.684-0.389,1.092
					c0,1.004,0.764,1.502,1.33,1.502c0.371,0,0.604-0.043,0.771-0.236c0.067-0.082,0.125-0.201,0.139-0.279
					c0.018-0.066,0.024-0.082,0.059-0.082c0.03,0,0.039,0.027,0.039,0.063c0,0.049-0.052,0.416-0.098,0.563
					c-0.019,0.07-0.033,0.09-0.105,0.121c-0.17,0.064-0.489,0.096-0.756,0.096C60.342,49.65,59.856,49.523,59.474,49.191z"/>
				<path fill="#231916" d="M62.278,47.996c0-0.721,0.475-1.652,1.742-1.652c1.05,0,1.703,0.609,1.703,1.574
					c0,0.969-0.675,1.732-1.748,1.732C62.771,49.65,62.278,48.744,62.278,47.996z M65.136,48.078c0-0.947-0.547-1.533-1.238-1.533
					c-0.483,0-1.035,0.271-1.035,1.322c0,0.877,0.484,1.572,1.295,1.572C64.45,49.439,65.136,49.297,65.136,48.078z"/>
				<path fill="#231916" d="M66.588,46.422c0.013-0.074,0.038-0.113,0.073-0.113c0.034,0,0.059,0.02,0.113,0.137l1.15,2.373
					l1.148-2.406c0.033-0.068,0.055-0.104,0.094-0.104c0.038,0,0.063,0.045,0.074,0.137l0.387,2.604
					c0.037,0.266,0.079,0.389,0.205,0.426c0.123,0.039,0.209,0.041,0.261,0.041c0.039,0,0.069,0.002,0.069,0.031
					c0,0.033-0.051,0.043-0.111,0.043c-0.105,0-0.686-0.01-0.856-0.023c-0.095-0.008-0.122-0.02-0.122-0.049
					c0-0.016,0.02-0.033,0.047-0.043c0.023-0.01,0.039-0.064,0.021-0.182l-0.252-1.855h-0.018l-0.921,1.91
					c-0.096,0.201-0.117,0.24-0.157,0.24c-0.035,0-0.078-0.084-0.146-0.209c-0.1-0.197-0.434-0.844-0.484-0.961
					c-0.038-0.09-0.289-0.619-0.438-0.936h-0.018l-0.221,1.678c-0.008,0.08-0.012,0.133-0.012,0.201
					c0,0.078,0.056,0.117,0.125,0.133c0.077,0.02,0.133,0.021,0.178,0.021c0.034,0,0.064,0.008,0.064,0.031
					c0,0.039-0.039,0.043-0.099,0.043c-0.177,0-0.372-0.01-0.446-0.01c-0.08,0-0.283,0.01-0.414,0.01
					c-0.045,0-0.078-0.004-0.078-0.043c0-0.023,0.022-0.031,0.067-0.031c0.032,0,0.06,0,0.122-0.012
					c0.121-0.025,0.156-0.189,0.176-0.334L66.588,46.422z"/>
				<path fill="#231916" d="M70.616,47.629c0-0.643,0-0.764-0.01-0.896c-0.006-0.143-0.039-0.211-0.18-0.24
					c-0.035-0.012-0.105-0.014-0.164-0.014c-0.047,0-0.072-0.012-0.072-0.033c0-0.033,0.031-0.043,0.094-0.043
					c0.224,0,0.488,0.01,0.609,0.01c0.168,0,0.416-0.01,0.61-0.01c0.524,0,0.715,0.178,0.78,0.24
					c0.097,0.09,0.213,0.281,0.213,0.502c0,0.6-0.436,1.021-1.039,1.021c-0.019,0-0.066,0-0.084,0
					c-0.023-0.008-0.051-0.014-0.051-0.043c0-0.033,0.027-0.045,0.116-0.045c0.236,0,0.563-0.266,0.563-0.695
					c0-0.143-0.01-0.422-0.248-0.637c-0.152-0.135-0.324-0.16-0.42-0.16c-0.064,0-0.129,0.004-0.165,0.016
					c-0.022,0.01-0.034,0.035-0.034,0.08v1.686c0,0.391,0,0.721,0.022,0.902c0.012,0.117,0.034,0.211,0.165,0.232
					c0.059,0.008,0.146,0.014,0.213,0.014c0.049,0,0.066,0.014,0.066,0.033c0,0.031-0.031,0.041-0.08,0.041
					c-0.275,0-0.543-0.01-0.652-0.01c-0.098,0-0.362,0.01-0.534,0.01c-0.052,0-0.083-0.01-0.083-0.041
					c0-0.02,0.018-0.033,0.068-0.033c0.061,0,0.117-0.006,0.153-0.014c0.085-0.021,0.104-0.115,0.122-0.234
					c0.02-0.18,0.02-0.51,0.02-0.9V47.629z"/>
				<path fill="#231916" d="M73.504,48.49c-0.021,0-0.031,0.008-0.039,0.033l-0.228,0.604c-0.042,0.104-0.062,0.209-0.062,0.258
					c0,0.076,0.036,0.131,0.167,0.131h0.061c0.051,0,0.067,0.008,0.067,0.033c0,0.037-0.026,0.041-0.073,0.041
					c-0.136,0-0.314-0.01-0.449-0.01c-0.045,0-0.275,0.01-0.496,0.01c-0.053,0-0.079-0.004-0.079-0.041
					c0-0.025,0.015-0.033,0.049-0.033c0.04,0,0.098-0.002,0.131-0.006c0.196-0.029,0.276-0.172,0.36-0.383l1.06-2.648
					c0.05-0.121,0.075-0.17,0.117-0.17c0.037,0,0.06,0.039,0.104,0.137c0.1,0.23,0.775,1.955,1.045,2.594
					c0.163,0.379,0.285,0.439,0.373,0.463c0.063,0.012,0.129,0.014,0.176,0.014c0.033,0,0.059,0.002,0.059,0.033
					c0,0.037-0.039,0.041-0.196,0.041c-0.152,0-0.46,0-0.794-0.004c-0.079-0.006-0.13-0.006-0.13-0.037
					c0-0.025,0.017-0.033,0.06-0.035c0.027-0.01,0.059-0.049,0.037-0.1l-0.338-0.895c-0.01-0.021-0.02-0.029-0.04-0.029H73.504z
					 M74.364,48.281c0.02,0,0.025-0.016,0.02-0.027l-0.379-1.043c-0.004-0.014-0.008-0.037-0.02-0.037
					c-0.013,0-0.022,0.023-0.025,0.037l-0.388,1.039c-0.005,0.016,0,0.031,0.017,0.031H74.364z"/>
				<path fill="#231916" d="M76.478,49.021c0.008,0.324,0.063,0.436,0.148,0.463c0.073,0.029,0.15,0.031,0.221,0.031
					c0.043,0,0.07,0.008,0.07,0.033c0,0.037-0.039,0.041-0.098,0.041c-0.273,0-0.443-0.01-0.523-0.01
					c-0.037,0-0.236,0.01-0.458,0.01c-0.054,0-0.093-0.002-0.093-0.041c0-0.025,0.027-0.033,0.07-0.033
					c0.055,0,0.13-0.002,0.191-0.021c0.107-0.033,0.12-0.156,0.128-0.521l0.038-2.498c0-0.088,0.015-0.146,0.056-0.146
					c0.046,0,0.084,0.057,0.157,0.133c0.051,0.057,0.689,0.746,1.307,1.354c0.285,0.289,0.857,0.896,0.928,0.963h0.021l-0.041-1.895
					c-0.006-0.258-0.042-0.338-0.146-0.379c-0.062-0.025-0.163-0.025-0.224-0.025c-0.05,0-0.067-0.016-0.067-0.033
					c0-0.039,0.049-0.043,0.111-0.043c0.219,0,0.422,0.01,0.507,0.01c0.049,0,0.21-0.01,0.417-0.01c0.053,0,0.096,0.004,0.096,0.043
					c0,0.018-0.025,0.033-0.073,0.033c-0.044,0-0.077,0-0.127,0.014c-0.12,0.033-0.152,0.121-0.158,0.357l-0.044,2.664
					c0,0.094-0.021,0.131-0.055,0.131c-0.049,0-0.1-0.047-0.146-0.096c-0.265-0.252-0.807-0.805-1.243-1.24
					c-0.458-0.455-0.926-0.98-1.005-1.063H76.43L76.478,49.021z"/>
				<path fill="#231916" d="M80.663,48.498c0-0.229-0.045-0.318-0.1-0.445c-0.027-0.064-0.595-0.992-0.745-1.213
					c-0.104-0.156-0.208-0.26-0.289-0.305c-0.056-0.031-0.124-0.057-0.175-0.057c-0.037,0-0.064-0.012-0.064-0.033
					c0-0.033,0.027-0.043,0.078-0.043c0.078,0,0.396,0.01,0.533,0.01c0.088,0,0.264-0.01,0.45-0.01c0.046,0,0.065,0.01,0.065,0.043
					c0,0.018-0.031,0.021-0.094,0.041c-0.039,0.01-0.059,0.041-0.059,0.078c0,0.033,0.02,0.084,0.049,0.145
					c0.063,0.125,0.651,1.139,0.719,1.262c0.044-0.104,0.572-1.033,0.631-1.162c0.043-0.094,0.06-0.166,0.06-0.219
					c0-0.045-0.017-0.09-0.089-0.109c-0.037-0.006-0.074-0.018-0.074-0.035c0-0.033,0.02-0.043,0.071-0.043
					c0.14,0,0.272,0.01,0.397,0.01c0.092,0,0.369-0.01,0.451-0.01c0.044,0,0.074,0.01,0.074,0.035s-0.035,0.041-0.078,0.041
					c-0.044,0-0.125,0.018-0.186,0.049c-0.092,0.047-0.134,0.094-0.229,0.209c-0.142,0.17-0.728,1.158-0.804,1.342
					c-0.066,0.15-0.066,0.279-0.066,0.42v0.348c0,0.066,0,0.242,0.016,0.422c0.008,0.119,0.045,0.213,0.17,0.234
					c0.059,0.008,0.154,0.014,0.213,0.014c0.045,0,0.066,0.014,0.066,0.033c0,0.031-0.031,0.041-0.086,0.041
					c-0.268,0-0.533-0.01-0.648-0.01c-0.104,0-0.369,0.01-0.523,0.01c-0.063,0-0.096-0.004-0.096-0.041
					c0-0.02,0.021-0.033,0.066-0.033c0.061,0,0.112-0.006,0.148-0.014c0.086-0.021,0.123-0.115,0.131-0.234
					c0.016-0.18,0.016-0.355,0.016-0.422V48.498z"/>
			</g>
		</g>
	</g>
</g>
</svg>
