<?xml version="1.0" encoding="utf-8"?>
<!-- Generator: Adobe Illustrator 16.2.0, SVG Export Plug-In . SVG Version: 6.00 Build 0)  -->
<!DOCTYPE svg PUBLIC "-//W3C//DTD SVG 1.1//EN" "http://www.w3.org/Graphics/SVG/1.1/DTD/svg11.dtd">
<svg version="1.1" id="Layer_1" xmlns="http://www.w3.org/2000/svg" xmlns:xlink="http://www.w3.org/1999/xlink" x="0px" y="0px"
	 width="89px" height="104px" viewBox="0 0 89 104" enable-background="new 0 0 89 104" xml:space="preserve">
<g>
	
		<line fill="none" stroke="#231916" stroke-width="0.9185" stroke-miterlimit="10" x1="0.044" y1="103.56" x2="88.927" y2="103.56"/>
	<g>
		<rect x="14.049" y="0.066" fill="#005793" width="61.834" height="103.354"/>
		
			<line fill="none" stroke="#FFFFFF" stroke-width="1.2016" stroke-miterlimit="10" x1="14.048" y1="10.143" x2="76.579" y2="10.143"/>
		
			<line fill="none" stroke="#FFFFFF" stroke-width="1.2016" stroke-miterlimit="10" x1="14.048" y1="20.368" x2="76.579" y2="20.368"/>
		
			<line fill="none" stroke="#FFFFFF" stroke-width="1.2016" stroke-miterlimit="10" x1="14.048" y1="30.597" x2="76.579" y2="30.597"/>
		
			<line fill="none" stroke="#FFFFFF" stroke-width="1.2016" stroke-miterlimit="10" x1="14.048" y1="40.685" x2="76.579" y2="40.685"/>
		
			<line fill="none" stroke="#FFFFFF" stroke-width="1.2016" stroke-miterlimit="10" x1="14.048" y1="51.25" x2="76.579" y2="51.25"/>
		
			<line fill="none" stroke="#FFFFFF" stroke-width="1.2016" stroke-miterlimit="10" x1="14.048" y1="61.821" x2="76.579" y2="61.821"/>
		
			<line fill="none" stroke="#FFFFFF" stroke-width="1.2016" stroke-miterlimit="10" x1="14.048" y1="72.412" x2="76.579" y2="72.412"/>
		
			<line fill="none" stroke="#FFFFFF" stroke-width="1.2016" stroke-miterlimit="10" x1="14.048" y1="82.979" x2="76.579" y2="82.979"/>
		
			<line fill="none" stroke="#FFFFFF" stroke-width="1.2016" stroke-miterlimit="10" x1="14.048" y1="92.696" x2="76.579" y2="92.696"/>
		
			<line fill="none" stroke="#FFFFFF" stroke-width="1.2016" stroke-miterlimit="10" x1="44.618" y1="-0.278" x2="44.618" y2="103.592"/>
		
			<line fill="none" stroke="#FFFFFF" stroke-width="1.2016" stroke-miterlimit="10" x1="34.719" y1="-0.278" x2="34.719" y2="103.592"/>
		
			<line fill="none" stroke="#FFFFFF" stroke-width="1.2016" stroke-miterlimit="10" x1="24.296" y1="-0.278" x2="24.296" y2="103.592"/>
		
			<line fill="none" stroke="#FFFFFF" stroke-width="1.2016" stroke-miterlimit="10" x1="65.464" y1="-0.278" x2="65.464" y2="103.592"/>
		
			<line fill="none" stroke="#FFFFFF" stroke-width="1.2016" stroke-miterlimit="10" x1="55.041" y1="-0.278" x2="55.041" y2="103.592"/>
	</g>
	<rect x="14.032" y="0.063" fill="#C30F23" width="9.68" height="9.494"/>
</g>
</svg>
